<mxfile host="Electron" agent="Mozilla/5.0 (Windows NT 10.0; Win64; x64) AppleWebKit/537.36 (KHTML, like Gecko) draw.io/24.7.5 Chrome/126.0.6478.183 Electron/31.3.0 Safari/537.36" version="24.7.5">
  <diagram name="Página-1" id="v3zsgYYV9GJ_VKtIuJyU">
    <mxGraphModel dx="3010" dy="2436" grid="1" gridSize="10" guides="1" tooltips="1" connect="1" arrows="1" fold="1" page="1" pageScale="1" pageWidth="827" pageHeight="1169" math="0" shadow="0">
      <root>
        <mxCell id="0" />
        <mxCell id="1" parent="0" />
        <mxCell id="2i5c325rwn35jVtTAGPS-119" value="" style="rounded=0;whiteSpace=wrap;html=1;" vertex="1" parent="1">
          <mxGeometry x="-110" y="440" width="190" height="310" as="geometry" />
        </mxCell>
        <mxCell id="2i5c325rwn35jVtTAGPS-88" value="" style="rounded=0;whiteSpace=wrap;html=1;" vertex="1" parent="1">
          <mxGeometry x="-260" y="790" width="230" height="240" as="geometry" />
        </mxCell>
        <mxCell id="1BaBInEf8kQ6XVin8U2z-1" value="Built-in Objects" style="rounded=0;whiteSpace=wrap;html=1;" parent="1" vertex="1">
          <mxGeometry x="310" y="890" width="90" height="40" as="geometry" />
        </mxCell>
        <mxCell id="1BaBInEf8kQ6XVin8U2z-2" value="Objetos Globales" style="rounded=0;whiteSpace=wrap;html=1;" parent="1" vertex="1">
          <mxGeometry x="480" y="190" width="110" height="40" as="geometry" />
        </mxCell>
        <mxCell id="1BaBInEf8kQ6XVin8U2z-3" value="Objetos de Números y Fechas" style="rounded=0;whiteSpace=wrap;html=1;" parent="1" vertex="1">
          <mxGeometry x="480" y="590" width="110" height="40" as="geometry" />
        </mxCell>
        <mxCell id="1BaBInEf8kQ6XVin8U2z-4" value="Objetos de Texto" style="rounded=0;whiteSpace=wrap;html=1;" parent="1" vertex="1">
          <mxGeometry x="480" y="710" width="110" height="40" as="geometry" />
        </mxCell>
        <mxCell id="1BaBInEf8kQ6XVin8U2z-5" value="Objetos de Colección" style="rounded=0;whiteSpace=wrap;html=1;" parent="1" vertex="1">
          <mxGeometry x="470" y="970" width="130" height="40" as="geometry" />
        </mxCell>
        <mxCell id="1BaBInEf8kQ6XVin8U2z-6" value="Objetos de Estructuras de Datos tipadas" style="rounded=0;whiteSpace=wrap;html=1;" parent="1" vertex="1">
          <mxGeometry x="470" y="1440" width="130" height="40" as="geometry" />
        </mxCell>
        <mxCell id="1BaBInEf8kQ6XVin8U2z-7" value="Object" style="rounded=0;whiteSpace=wrap;html=1;" parent="1" vertex="1">
          <mxGeometry x="650" y="-60" width="110" height="40" as="geometry" />
        </mxCell>
        <mxCell id="1BaBInEf8kQ6XVin8U2z-8" value="Function" style="rounded=0;whiteSpace=wrap;html=1;" parent="1" vertex="1">
          <mxGeometry x="650" y="-10" width="110" height="40" as="geometry" />
        </mxCell>
        <mxCell id="1BaBInEf8kQ6XVin8U2z-9" value="Boolean" style="rounded=0;whiteSpace=wrap;html=1;" parent="1" vertex="1">
          <mxGeometry x="650" y="40" width="110" height="40" as="geometry" />
        </mxCell>
        <mxCell id="1BaBInEf8kQ6XVin8U2z-10" value="Symbol" style="rounded=0;whiteSpace=wrap;html=1;" parent="1" vertex="1">
          <mxGeometry x="650" y="90" width="110" height="40" as="geometry" />
        </mxCell>
        <mxCell id="1BaBInEf8kQ6XVin8U2z-11" value="Error" style="rounded=0;whiteSpace=wrap;html=1;" parent="1" vertex="1">
          <mxGeometry x="650" y="140" width="110" height="40" as="geometry" />
        </mxCell>
        <mxCell id="1BaBInEf8kQ6XVin8U2z-12" value="EvalError" style="rounded=0;whiteSpace=wrap;html=1;" parent="1" vertex="1">
          <mxGeometry x="650" y="190" width="110" height="40" as="geometry" />
        </mxCell>
        <mxCell id="1BaBInEf8kQ6XVin8U2z-13" value="RangeError" style="rounded=0;whiteSpace=wrap;html=1;" parent="1" vertex="1">
          <mxGeometry x="650" y="240" width="110" height="40" as="geometry" />
        </mxCell>
        <mxCell id="1BaBInEf8kQ6XVin8U2z-14" value="ReferenceError" style="rounded=0;whiteSpace=wrap;html=1;" parent="1" vertex="1">
          <mxGeometry x="650" y="290" width="110" height="40" as="geometry" />
        </mxCell>
        <mxCell id="1BaBInEf8kQ6XVin8U2z-15" value="SyntaxError" style="rounded=0;whiteSpace=wrap;html=1;" parent="1" vertex="1">
          <mxGeometry x="650" y="340" width="110" height="40" as="geometry" />
        </mxCell>
        <mxCell id="1BaBInEf8kQ6XVin8U2z-16" value="TypeError" style="rounded=0;whiteSpace=wrap;html=1;" parent="1" vertex="1">
          <mxGeometry x="650" y="390" width="110" height="40" as="geometry" />
        </mxCell>
        <mxCell id="1BaBInEf8kQ6XVin8U2z-17" value="URIError" style="rounded=0;whiteSpace=wrap;html=1;" parent="1" vertex="1">
          <mxGeometry x="650" y="440" width="110" height="40" as="geometry" />
        </mxCell>
        <mxCell id="1BaBInEf8kQ6XVin8U2z-18" value="" style="endArrow=none;html=1;rounded=0;entryX=0;entryY=0.5;entryDx=0;entryDy=0;exitX=1;exitY=0.5;exitDx=0;exitDy=0;" parent="1" source="1BaBInEf8kQ6XVin8U2z-2" target="1BaBInEf8kQ6XVin8U2z-7" edge="1">
          <mxGeometry width="50" height="50" relative="1" as="geometry">
            <mxPoint x="390" y="150" as="sourcePoint" />
            <mxPoint x="440" y="100" as="targetPoint" />
            <Array as="points">
              <mxPoint x="620" y="210" />
              <mxPoint x="620" y="50" />
              <mxPoint x="620" y="-40" />
            </Array>
          </mxGeometry>
        </mxCell>
        <mxCell id="1BaBInEf8kQ6XVin8U2z-20" value="" style="endArrow=none;html=1;rounded=0;entryX=0;entryY=0.5;entryDx=0;entryDy=0;" parent="1" target="1BaBInEf8kQ6XVin8U2z-8" edge="1">
          <mxGeometry width="50" height="50" relative="1" as="geometry">
            <mxPoint x="620" y="10" as="sourcePoint" />
            <mxPoint x="440" y="100" as="targetPoint" />
          </mxGeometry>
        </mxCell>
        <mxCell id="1BaBInEf8kQ6XVin8U2z-22" value="Number" style="rounded=0;whiteSpace=wrap;html=1;" parent="1" vertex="1">
          <mxGeometry x="650" y="490" width="110" height="40" as="geometry" />
        </mxCell>
        <mxCell id="1BaBInEf8kQ6XVin8U2z-23" value="BigInt" style="rounded=0;whiteSpace=wrap;html=1;" parent="1" vertex="1">
          <mxGeometry x="650" y="545" width="110" height="40" as="geometry" />
        </mxCell>
        <mxCell id="1BaBInEf8kQ6XVin8U2z-24" value="Math" style="rounded=0;whiteSpace=wrap;html=1;" parent="1" vertex="1">
          <mxGeometry x="650" y="590" width="110" height="40" as="geometry" />
        </mxCell>
        <mxCell id="1BaBInEf8kQ6XVin8U2z-25" value="Date" style="rounded=0;whiteSpace=wrap;html=1;" parent="1" vertex="1">
          <mxGeometry x="650" y="640" width="110" height="40" as="geometry" />
        </mxCell>
        <mxCell id="1BaBInEf8kQ6XVin8U2z-26" value="" style="endArrow=none;html=1;rounded=0;entryX=0;entryY=0.5;entryDx=0;entryDy=0;exitX=1;exitY=0.5;exitDx=0;exitDy=0;" parent="1" source="1BaBInEf8kQ6XVin8U2z-3" target="1BaBInEf8kQ6XVin8U2z-23" edge="1">
          <mxGeometry width="50" height="50" relative="1" as="geometry">
            <mxPoint x="580" y="730" as="sourcePoint" />
            <mxPoint x="630" y="680" as="targetPoint" />
            <Array as="points">
              <mxPoint x="620" y="610" />
              <mxPoint x="620" y="565" />
            </Array>
          </mxGeometry>
        </mxCell>
        <mxCell id="1BaBInEf8kQ6XVin8U2z-27" value="" style="endArrow=none;html=1;rounded=0;entryX=0;entryY=0.5;entryDx=0;entryDy=0;" parent="1" target="1BaBInEf8kQ6XVin8U2z-24" edge="1">
          <mxGeometry width="50" height="50" relative="1" as="geometry">
            <mxPoint x="620" y="610" as="sourcePoint" />
            <mxPoint x="640" y="560" as="targetPoint" />
          </mxGeometry>
        </mxCell>
        <mxCell id="1BaBInEf8kQ6XVin8U2z-28" value="" style="endArrow=none;html=1;rounded=0;entryX=0;entryY=0.5;entryDx=0;entryDy=0;exitX=1;exitY=0.5;exitDx=0;exitDy=0;" parent="1" source="1BaBInEf8kQ6XVin8U2z-3" target="1BaBInEf8kQ6XVin8U2z-25" edge="1">
          <mxGeometry width="50" height="50" relative="1" as="geometry">
            <mxPoint x="600" y="620" as="sourcePoint" />
            <mxPoint x="660" y="575" as="targetPoint" />
            <Array as="points">
              <mxPoint x="620" y="610" />
              <mxPoint x="620" y="660" />
            </Array>
          </mxGeometry>
        </mxCell>
        <mxCell id="1BaBInEf8kQ6XVin8U2z-29" value="" style="endArrow=none;html=1;rounded=0;entryX=0;entryY=0.5;entryDx=0;entryDy=0;exitX=1;exitY=0.5;exitDx=0;exitDy=0;" parent="1" source="1BaBInEf8kQ6XVin8U2z-2" target="1BaBInEf8kQ6XVin8U2z-22" edge="1">
          <mxGeometry width="50" height="50" relative="1" as="geometry">
            <mxPoint x="600" y="220" as="sourcePoint" />
            <mxPoint x="660" y="-30" as="targetPoint" />
            <Array as="points">
              <mxPoint x="620" y="210" />
              <mxPoint x="620" y="510" />
            </Array>
          </mxGeometry>
        </mxCell>
        <mxCell id="1BaBInEf8kQ6XVin8U2z-30" value="" style="endArrow=none;html=1;rounded=0;entryX=0;entryY=0.5;entryDx=0;entryDy=0;exitX=1;exitY=0.5;exitDx=0;exitDy=0;" parent="1" source="1BaBInEf8kQ6XVin8U2z-2" target="1BaBInEf8kQ6XVin8U2z-17" edge="1">
          <mxGeometry width="50" height="50" relative="1" as="geometry">
            <mxPoint x="600" y="220" as="sourcePoint" />
            <mxPoint x="660" y="520" as="targetPoint" />
            <Array as="points">
              <mxPoint x="620" y="210" />
              <mxPoint x="620" y="460" />
            </Array>
          </mxGeometry>
        </mxCell>
        <mxCell id="1BaBInEf8kQ6XVin8U2z-31" value="String" style="rounded=0;whiteSpace=wrap;html=1;" parent="1" vertex="1">
          <mxGeometry x="650" y="690" width="110" height="40" as="geometry" />
        </mxCell>
        <mxCell id="1BaBInEf8kQ6XVin8U2z-32" value="RegExp" style="rounded=0;whiteSpace=wrap;html=1;" parent="1" vertex="1">
          <mxGeometry x="650" y="740" width="110" height="40" as="geometry" />
        </mxCell>
        <mxCell id="1BaBInEf8kQ6XVin8U2z-33" value="" style="endArrow=none;html=1;rounded=0;exitX=1;exitY=0.5;exitDx=0;exitDy=0;entryX=0;entryY=0.5;entryDx=0;entryDy=0;" parent="1" source="1BaBInEf8kQ6XVin8U2z-4" target="1BaBInEf8kQ6XVin8U2z-32" edge="1">
          <mxGeometry width="50" height="50" relative="1" as="geometry">
            <mxPoint x="600" y="620" as="sourcePoint" />
            <mxPoint x="640" y="760" as="targetPoint" />
            <Array as="points">
              <mxPoint x="620" y="730" />
              <mxPoint x="620" y="760" />
            </Array>
          </mxGeometry>
        </mxCell>
        <mxCell id="1BaBInEf8kQ6XVin8U2z-34" value="" style="endArrow=none;html=1;rounded=0;exitX=1;exitY=0.5;exitDx=0;exitDy=0;entryX=0;entryY=0.5;entryDx=0;entryDy=0;" parent="1" source="1BaBInEf8kQ6XVin8U2z-4" target="1BaBInEf8kQ6XVin8U2z-31" edge="1">
          <mxGeometry width="50" height="50" relative="1" as="geometry">
            <mxPoint x="600" y="740" as="sourcePoint" />
            <mxPoint x="660" y="770" as="targetPoint" />
            <Array as="points">
              <mxPoint x="620" y="730" />
              <mxPoint x="620" y="710" />
            </Array>
          </mxGeometry>
        </mxCell>
        <mxCell id="1BaBInEf8kQ6XVin8U2z-35" value="Array" style="rounded=0;whiteSpace=wrap;html=1;" parent="1" vertex="1">
          <mxGeometry x="650" y="790" width="110" height="40" as="geometry" />
        </mxCell>
        <mxCell id="1BaBInEf8kQ6XVin8U2z-36" value="Map" style="rounded=0;whiteSpace=wrap;html=1;" parent="1" vertex="1">
          <mxGeometry x="650" y="840" width="110" height="40" as="geometry" />
        </mxCell>
        <mxCell id="1BaBInEf8kQ6XVin8U2z-37" value="Set" style="rounded=0;whiteSpace=wrap;html=1;" parent="1" vertex="1">
          <mxGeometry x="650" y="890" width="110" height="40" as="geometry" />
        </mxCell>
        <mxCell id="1BaBInEf8kQ6XVin8U2z-38" value="WeakMap" style="rounded=0;whiteSpace=wrap;html=1;" parent="1" vertex="1">
          <mxGeometry x="650" y="940" width="110" height="40" as="geometry" />
        </mxCell>
        <mxCell id="1BaBInEf8kQ6XVin8U2z-39" value="WeakSet" style="rounded=0;whiteSpace=wrap;html=1;" parent="1" vertex="1">
          <mxGeometry x="650" y="990" width="110" height="40" as="geometry" />
        </mxCell>
        <mxCell id="1BaBInEf8kQ6XVin8U2z-40" value="ArrayBuffer" style="rounded=0;whiteSpace=wrap;html=1;" parent="1" vertex="1">
          <mxGeometry x="650" y="1040" width="110" height="40" as="geometry" />
        </mxCell>
        <mxCell id="1BaBInEf8kQ6XVin8U2z-41" value="SharedArrayBuffer" style="rounded=0;whiteSpace=wrap;html=1;" parent="1" vertex="1">
          <mxGeometry x="650" y="1090" width="110" height="40" as="geometry" />
        </mxCell>
        <mxCell id="1BaBInEf8kQ6XVin8U2z-42" value="Atomics" style="rounded=0;whiteSpace=wrap;html=1;" parent="1" vertex="1">
          <mxGeometry x="650" y="1140" width="110" height="40" as="geometry" />
        </mxCell>
        <mxCell id="1BaBInEf8kQ6XVin8U2z-43" value="DataView" style="rounded=0;whiteSpace=wrap;html=1;" parent="1" vertex="1">
          <mxGeometry x="650" y="1190" width="110" height="40" as="geometry" />
        </mxCell>
        <mxCell id="1BaBInEf8kQ6XVin8U2z-44" value="" style="endArrow=none;html=1;rounded=0;exitX=1;exitY=0.5;exitDx=0;exitDy=0;entryX=0;entryY=0.5;entryDx=0;entryDy=0;" parent="1" source="1BaBInEf8kQ6XVin8U2z-5" target="1BaBInEf8kQ6XVin8U2z-35" edge="1">
          <mxGeometry width="50" height="50" relative="1" as="geometry">
            <mxPoint x="600" y="740" as="sourcePoint" />
            <mxPoint x="660" y="720" as="targetPoint" />
            <Array as="points">
              <mxPoint x="620" y="990" />
              <mxPoint x="620" y="810" />
            </Array>
          </mxGeometry>
        </mxCell>
        <mxCell id="1BaBInEf8kQ6XVin8U2z-45" value="" style="endArrow=none;html=1;rounded=0;exitX=1;exitY=0.5;exitDx=0;exitDy=0;entryX=0;entryY=0.5;entryDx=0;entryDy=0;" parent="1" source="1BaBInEf8kQ6XVin8U2z-5" target="1BaBInEf8kQ6XVin8U2z-43" edge="1">
          <mxGeometry width="50" height="50" relative="1" as="geometry">
            <mxPoint x="610" y="1000" as="sourcePoint" />
            <mxPoint x="660" y="820" as="targetPoint" />
            <Array as="points">
              <mxPoint x="620" y="990" />
              <mxPoint x="620" y="1140" />
              <mxPoint x="620" y="1210" />
            </Array>
          </mxGeometry>
        </mxCell>
        <mxCell id="rx3dfesW_42bfVMa2w8u-1" value="Int8Array" style="rounded=0;whiteSpace=wrap;html=1;" parent="1" vertex="1">
          <mxGeometry x="650" y="1240" width="110" height="40" as="geometry" />
        </mxCell>
        <mxCell id="rx3dfesW_42bfVMa2w8u-2" value="Uint8Array" style="rounded=0;whiteSpace=wrap;html=1;" parent="1" vertex="1">
          <mxGeometry x="650" y="1290" width="110" height="40" as="geometry" />
        </mxCell>
        <mxCell id="rx3dfesW_42bfVMa2w8u-3" value="Uint8ClampedArray" style="rounded=0;whiteSpace=wrap;html=1;" parent="1" vertex="1">
          <mxGeometry x="650" y="1340" width="110" height="40" as="geometry" />
        </mxCell>
        <mxCell id="rx3dfesW_42bfVMa2w8u-4" value="Int16Array" style="rounded=0;whiteSpace=wrap;html=1;" parent="1" vertex="1">
          <mxGeometry x="650" y="1390" width="110" height="40" as="geometry" />
        </mxCell>
        <mxCell id="rx3dfesW_42bfVMa2w8u-5" value="Uint16Array" style="rounded=0;whiteSpace=wrap;html=1;" parent="1" vertex="1">
          <mxGeometry x="650" y="1440" width="110" height="40" as="geometry" />
        </mxCell>
        <mxCell id="rx3dfesW_42bfVMa2w8u-6" value="Int32Array" style="rounded=0;whiteSpace=wrap;html=1;" parent="1" vertex="1">
          <mxGeometry x="650" y="1490" width="110" height="40" as="geometry" />
        </mxCell>
        <mxCell id="rx3dfesW_42bfVMa2w8u-7" value="Uint32Array" style="rounded=0;whiteSpace=wrap;html=1;" parent="1" vertex="1">
          <mxGeometry x="650" y="1540" width="110" height="40" as="geometry" />
        </mxCell>
        <mxCell id="rx3dfesW_42bfVMa2w8u-8" value="Float32Array" style="rounded=0;whiteSpace=wrap;html=1;" parent="1" vertex="1">
          <mxGeometry x="650" y="1590" width="110" height="40" as="geometry" />
        </mxCell>
        <mxCell id="rx3dfesW_42bfVMa2w8u-9" value="Float64Array" style="rounded=0;whiteSpace=wrap;html=1;" parent="1" vertex="1">
          <mxGeometry x="650" y="1640" width="110" height="40" as="geometry" />
        </mxCell>
        <mxCell id="rx3dfesW_42bfVMa2w8u-10" value="BigInt64Array" style="rounded=0;whiteSpace=wrap;html=1;" parent="1" vertex="1">
          <mxGeometry x="650" y="1690" width="110" height="40" as="geometry" />
        </mxCell>
        <mxCell id="rx3dfesW_42bfVMa2w8u-11" value="BigUint64Arrray" style="rounded=0;whiteSpace=wrap;html=1;" parent="1" vertex="1">
          <mxGeometry x="650" y="1740" width="110" height="40" as="geometry" />
        </mxCell>
        <mxCell id="rx3dfesW_42bfVMa2w8u-12" value="" style="endArrow=none;html=1;rounded=0;exitX=1;exitY=0.5;exitDx=0;exitDy=0;entryX=0;entryY=0.5;entryDx=0;entryDy=0;" parent="1" target="rx3dfesW_42bfVMa2w8u-11" edge="1">
          <mxGeometry width="50" height="50" relative="1" as="geometry">
            <mxPoint x="600" y="1460" as="sourcePoint" />
            <mxPoint x="650" y="1680" as="targetPoint" />
            <Array as="points">
              <mxPoint x="620" y="1460" />
              <mxPoint x="620" y="1610" />
              <mxPoint x="620" y="1760" />
            </Array>
          </mxGeometry>
        </mxCell>
        <mxCell id="rx3dfesW_42bfVMa2w8u-13" value="" style="endArrow=none;html=1;rounded=0;entryX=0;entryY=0.5;entryDx=0;entryDy=0;" parent="1" edge="1">
          <mxGeometry width="50" height="50" relative="1" as="geometry">
            <mxPoint x="600" y="1460" as="sourcePoint" />
            <mxPoint x="650" y="1260" as="targetPoint" />
            <Array as="points">
              <mxPoint x="620" y="1460" />
              <mxPoint x="620" y="1260" />
            </Array>
          </mxGeometry>
        </mxCell>
        <mxCell id="zsl0paqGx3ntoXJmOhTc-1" value="" style="endArrow=none;html=1;rounded=0;entryX=0;entryY=0.5;entryDx=0;entryDy=0;" parent="1" target="1BaBInEf8kQ6XVin8U2z-9" edge="1">
          <mxGeometry width="50" height="50" relative="1" as="geometry">
            <mxPoint x="620" y="60" as="sourcePoint" />
            <mxPoint x="660" y="20" as="targetPoint" />
            <Array as="points">
              <mxPoint x="640" y="60" />
            </Array>
          </mxGeometry>
        </mxCell>
        <mxCell id="zsl0paqGx3ntoXJmOhTc-2" value="" style="endArrow=none;html=1;rounded=0;entryX=0;entryY=0.5;entryDx=0;entryDy=0;" parent="1" edge="1">
          <mxGeometry width="50" height="50" relative="1" as="geometry">
            <mxPoint x="620" y="109.9" as="sourcePoint" />
            <mxPoint x="650" y="109.9" as="targetPoint" />
            <Array as="points">
              <mxPoint x="640" y="109.9" />
            </Array>
          </mxGeometry>
        </mxCell>
        <mxCell id="zsl0paqGx3ntoXJmOhTc-3" value="" style="endArrow=none;html=1;rounded=0;entryX=0;entryY=0.5;entryDx=0;entryDy=0;" parent="1" edge="1">
          <mxGeometry width="50" height="50" relative="1" as="geometry">
            <mxPoint x="620" y="159.9" as="sourcePoint" />
            <mxPoint x="650" y="159.9" as="targetPoint" />
            <Array as="points">
              <mxPoint x="640" y="159.9" />
            </Array>
          </mxGeometry>
        </mxCell>
        <mxCell id="zsl0paqGx3ntoXJmOhTc-4" value="" style="endArrow=none;html=1;rounded=0;entryX=0;entryY=0.5;entryDx=0;entryDy=0;" parent="1" edge="1">
          <mxGeometry width="50" height="50" relative="1" as="geometry">
            <mxPoint x="620" y="209.9" as="sourcePoint" />
            <mxPoint x="650" y="209.9" as="targetPoint" />
            <Array as="points">
              <mxPoint x="640" y="209.9" />
            </Array>
          </mxGeometry>
        </mxCell>
        <mxCell id="zsl0paqGx3ntoXJmOhTc-5" value="" style="endArrow=none;html=1;rounded=0;entryX=0;entryY=0.5;entryDx=0;entryDy=0;" parent="1" edge="1">
          <mxGeometry width="50" height="50" relative="1" as="geometry">
            <mxPoint x="620" y="259.9" as="sourcePoint" />
            <mxPoint x="650" y="259.9" as="targetPoint" />
            <Array as="points">
              <mxPoint x="640" y="259.9" />
            </Array>
          </mxGeometry>
        </mxCell>
        <mxCell id="zsl0paqGx3ntoXJmOhTc-6" value="" style="endArrow=none;html=1;rounded=0;entryX=0;entryY=0.5;entryDx=0;entryDy=0;" parent="1" edge="1">
          <mxGeometry width="50" height="50" relative="1" as="geometry">
            <mxPoint x="620" y="309.9" as="sourcePoint" />
            <mxPoint x="650" y="309.9" as="targetPoint" />
            <Array as="points">
              <mxPoint x="640" y="309.9" />
            </Array>
          </mxGeometry>
        </mxCell>
        <mxCell id="zsl0paqGx3ntoXJmOhTc-7" value="" style="endArrow=none;html=1;rounded=0;entryX=0;entryY=0.5;entryDx=0;entryDy=0;" parent="1" edge="1">
          <mxGeometry width="50" height="50" relative="1" as="geometry">
            <mxPoint x="620" y="359.9" as="sourcePoint" />
            <mxPoint x="650" y="359.9" as="targetPoint" />
            <Array as="points">
              <mxPoint x="640" y="359.9" />
            </Array>
          </mxGeometry>
        </mxCell>
        <mxCell id="zsl0paqGx3ntoXJmOhTc-8" value="" style="endArrow=none;html=1;rounded=0;entryX=0;entryY=0.5;entryDx=0;entryDy=0;" parent="1" edge="1">
          <mxGeometry width="50" height="50" relative="1" as="geometry">
            <mxPoint x="620" y="409.9" as="sourcePoint" />
            <mxPoint x="650" y="409.9" as="targetPoint" />
            <Array as="points">
              <mxPoint x="640" y="409.9" />
            </Array>
          </mxGeometry>
        </mxCell>
        <mxCell id="zsl0paqGx3ntoXJmOhTc-9" value="" style="endArrow=none;html=1;rounded=0;entryX=0;entryY=0.5;entryDx=0;entryDy=0;" parent="1" edge="1">
          <mxGeometry width="50" height="50" relative="1" as="geometry">
            <mxPoint x="620" y="859.83" as="sourcePoint" />
            <mxPoint x="650" y="859.83" as="targetPoint" />
            <Array as="points">
              <mxPoint x="640" y="859.83" />
            </Array>
          </mxGeometry>
        </mxCell>
        <mxCell id="zsl0paqGx3ntoXJmOhTc-10" value="" style="endArrow=none;html=1;rounded=0;entryX=0;entryY=0.5;entryDx=0;entryDy=0;" parent="1" edge="1">
          <mxGeometry width="50" height="50" relative="1" as="geometry">
            <mxPoint x="620" y="909.83" as="sourcePoint" />
            <mxPoint x="650" y="909.83" as="targetPoint" />
            <Array as="points">
              <mxPoint x="640" y="909.83" />
            </Array>
          </mxGeometry>
        </mxCell>
        <mxCell id="zsl0paqGx3ntoXJmOhTc-11" value="" style="endArrow=none;html=1;rounded=0;entryX=0;entryY=0.5;entryDx=0;entryDy=0;" parent="1" edge="1">
          <mxGeometry width="50" height="50" relative="1" as="geometry">
            <mxPoint x="620" y="959.83" as="sourcePoint" />
            <mxPoint x="650" y="959.83" as="targetPoint" />
            <Array as="points">
              <mxPoint x="640" y="959.83" />
            </Array>
          </mxGeometry>
        </mxCell>
        <mxCell id="zsl0paqGx3ntoXJmOhTc-12" value="" style="endArrow=none;html=1;rounded=0;entryX=0;entryY=0.5;entryDx=0;entryDy=0;" parent="1" edge="1">
          <mxGeometry width="50" height="50" relative="1" as="geometry">
            <mxPoint x="620" y="1009.83" as="sourcePoint" />
            <mxPoint x="650" y="1009.83" as="targetPoint" />
            <Array as="points">
              <mxPoint x="640" y="1009.83" />
            </Array>
          </mxGeometry>
        </mxCell>
        <mxCell id="zsl0paqGx3ntoXJmOhTc-13" value="" style="endArrow=none;html=1;rounded=0;entryX=0;entryY=0.5;entryDx=0;entryDy=0;" parent="1" edge="1">
          <mxGeometry width="50" height="50" relative="1" as="geometry">
            <mxPoint x="620" y="1059.83" as="sourcePoint" />
            <mxPoint x="650" y="1059.83" as="targetPoint" />
            <Array as="points">
              <mxPoint x="640" y="1059.83" />
            </Array>
          </mxGeometry>
        </mxCell>
        <mxCell id="zsl0paqGx3ntoXJmOhTc-14" value="" style="endArrow=none;html=1;rounded=0;entryX=0;entryY=0.5;entryDx=0;entryDy=0;" parent="1" edge="1">
          <mxGeometry width="50" height="50" relative="1" as="geometry">
            <mxPoint x="620" y="1109.83" as="sourcePoint" />
            <mxPoint x="650" y="1109.83" as="targetPoint" />
            <Array as="points">
              <mxPoint x="640" y="1109.83" />
            </Array>
          </mxGeometry>
        </mxCell>
        <mxCell id="zsl0paqGx3ntoXJmOhTc-15" value="" style="endArrow=none;html=1;rounded=0;entryX=0;entryY=0.5;entryDx=0;entryDy=0;" parent="1" edge="1">
          <mxGeometry width="50" height="50" relative="1" as="geometry">
            <mxPoint x="620" y="1159.83" as="sourcePoint" />
            <mxPoint x="650" y="1159.83" as="targetPoint" />
            <Array as="points">
              <mxPoint x="640" y="1159.83" />
            </Array>
          </mxGeometry>
        </mxCell>
        <mxCell id="zsl0paqGx3ntoXJmOhTc-16" value="" style="endArrow=none;html=1;rounded=0;entryX=0;entryY=0.5;entryDx=0;entryDy=0;" parent="1" edge="1">
          <mxGeometry width="50" height="50" relative="1" as="geometry">
            <mxPoint x="620" y="1309.83" as="sourcePoint" />
            <mxPoint x="650" y="1309.83" as="targetPoint" />
            <Array as="points">
              <mxPoint x="640" y="1309.83" />
            </Array>
          </mxGeometry>
        </mxCell>
        <mxCell id="zsl0paqGx3ntoXJmOhTc-17" value="" style="endArrow=none;html=1;rounded=0;entryX=0;entryY=0.5;entryDx=0;entryDy=0;" parent="1" edge="1">
          <mxGeometry width="50" height="50" relative="1" as="geometry">
            <mxPoint x="620" y="1359.83" as="sourcePoint" />
            <mxPoint x="650" y="1359.83" as="targetPoint" />
            <Array as="points">
              <mxPoint x="640" y="1359.83" />
            </Array>
          </mxGeometry>
        </mxCell>
        <mxCell id="zsl0paqGx3ntoXJmOhTc-18" value="" style="endArrow=none;html=1;rounded=0;entryX=0;entryY=0.5;entryDx=0;entryDy=0;" parent="1" edge="1">
          <mxGeometry width="50" height="50" relative="1" as="geometry">
            <mxPoint x="620" y="1409.83" as="sourcePoint" />
            <mxPoint x="650" y="1409.83" as="targetPoint" />
            <Array as="points">
              <mxPoint x="640" y="1409.83" />
            </Array>
          </mxGeometry>
        </mxCell>
        <mxCell id="zsl0paqGx3ntoXJmOhTc-19" value="" style="endArrow=none;html=1;rounded=0;entryX=0;entryY=0.5;entryDx=0;entryDy=0;" parent="1" edge="1">
          <mxGeometry width="50" height="50" relative="1" as="geometry">
            <mxPoint x="620" y="1459.83" as="sourcePoint" />
            <mxPoint x="650" y="1459.83" as="targetPoint" />
            <Array as="points">
              <mxPoint x="640" y="1459.83" />
            </Array>
          </mxGeometry>
        </mxCell>
        <mxCell id="zsl0paqGx3ntoXJmOhTc-20" value="" style="endArrow=none;html=1;rounded=0;entryX=0;entryY=0.5;entryDx=0;entryDy=0;" parent="1" edge="1">
          <mxGeometry width="50" height="50" relative="1" as="geometry">
            <mxPoint x="620" y="1509.83" as="sourcePoint" />
            <mxPoint x="650" y="1509.83" as="targetPoint" />
            <Array as="points">
              <mxPoint x="640" y="1509.83" />
            </Array>
          </mxGeometry>
        </mxCell>
        <mxCell id="zsl0paqGx3ntoXJmOhTc-21" value="" style="endArrow=none;html=1;rounded=0;entryX=0;entryY=0.5;entryDx=0;entryDy=0;" parent="1" edge="1">
          <mxGeometry width="50" height="50" relative="1" as="geometry">
            <mxPoint x="620" y="1559.83" as="sourcePoint" />
            <mxPoint x="650" y="1559.83" as="targetPoint" />
            <Array as="points">
              <mxPoint x="640" y="1559.83" />
            </Array>
          </mxGeometry>
        </mxCell>
        <mxCell id="zsl0paqGx3ntoXJmOhTc-22" value="" style="endArrow=none;html=1;rounded=0;entryX=0;entryY=0.5;entryDx=0;entryDy=0;" parent="1" edge="1">
          <mxGeometry width="50" height="50" relative="1" as="geometry">
            <mxPoint x="620" y="1609.83" as="sourcePoint" />
            <mxPoint x="650" y="1609.83" as="targetPoint" />
            <Array as="points">
              <mxPoint x="640" y="1609.83" />
            </Array>
          </mxGeometry>
        </mxCell>
        <mxCell id="zsl0paqGx3ntoXJmOhTc-23" value="" style="endArrow=none;html=1;rounded=0;entryX=0;entryY=0.5;entryDx=0;entryDy=0;" parent="1" edge="1">
          <mxGeometry width="50" height="50" relative="1" as="geometry">
            <mxPoint x="620" y="1659.83" as="sourcePoint" />
            <mxPoint x="650" y="1659.83" as="targetPoint" />
            <Array as="points">
              <mxPoint x="640" y="1659.83" />
            </Array>
          </mxGeometry>
        </mxCell>
        <mxCell id="zsl0paqGx3ntoXJmOhTc-24" value="" style="endArrow=none;html=1;rounded=0;entryX=0;entryY=0.5;entryDx=0;entryDy=0;" parent="1" edge="1">
          <mxGeometry width="50" height="50" relative="1" as="geometry">
            <mxPoint x="620" y="1709.83" as="sourcePoint" />
            <mxPoint x="650" y="1709.83" as="targetPoint" />
            <Array as="points">
              <mxPoint x="640" y="1709.83" />
            </Array>
          </mxGeometry>
        </mxCell>
        <mxCell id="2i5c325rwn35jVtTAGPS-1" value="Object" style="rounded=0;whiteSpace=wrap;html=1;" vertex="1" parent="1">
          <mxGeometry x="170" y="890" width="90" height="40" as="geometry" />
        </mxCell>
        <mxCell id="2i5c325rwn35jVtTAGPS-2" value="" style="endArrow=none;html=1;rounded=0;exitX=1;exitY=0.5;exitDx=0;exitDy=0;entryX=0;entryY=0.5;entryDx=0;entryDy=0;" edge="1" parent="1" target="1BaBInEf8kQ6XVin8U2z-6">
          <mxGeometry width="50" height="50" relative="1" as="geometry">
            <mxPoint x="400" y="910" as="sourcePoint" />
            <mxPoint x="460" y="940" as="targetPoint" />
            <Array as="points">
              <mxPoint x="440" y="910" />
              <mxPoint x="440" y="1460" />
            </Array>
          </mxGeometry>
        </mxCell>
        <mxCell id="2i5c325rwn35jVtTAGPS-4" value="" style="endArrow=none;html=1;rounded=0;entryX=0;entryY=0.5;entryDx=0;entryDy=0;" edge="1" parent="1">
          <mxGeometry width="50" height="50" relative="1" as="geometry">
            <mxPoint x="440" y="990" as="sourcePoint" />
            <mxPoint x="470" y="990" as="targetPoint" />
            <Array as="points">
              <mxPoint x="460" y="990" />
            </Array>
          </mxGeometry>
        </mxCell>
        <mxCell id="2i5c325rwn35jVtTAGPS-5" value="" style="endArrow=none;html=1;rounded=0;entryX=0;entryY=0.5;entryDx=0;entryDy=0;exitX=1;exitY=0.5;exitDx=0;exitDy=0;" edge="1" parent="1" source="1BaBInEf8kQ6XVin8U2z-1">
          <mxGeometry width="50" height="50" relative="1" as="geometry">
            <mxPoint x="420" y="775" as="sourcePoint" />
            <mxPoint x="480" y="730" as="targetPoint" />
            <Array as="points">
              <mxPoint x="440" y="910" />
              <mxPoint x="440" y="730" />
            </Array>
          </mxGeometry>
        </mxCell>
        <mxCell id="2i5c325rwn35jVtTAGPS-6" value="" style="endArrow=none;html=1;rounded=0;entryX=0;entryY=0.5;entryDx=0;entryDy=0;exitX=1;exitY=0.5;exitDx=0;exitDy=0;" edge="1" parent="1" source="1BaBInEf8kQ6XVin8U2z-1" target="1BaBInEf8kQ6XVin8U2z-3">
          <mxGeometry width="50" height="50" relative="1" as="geometry">
            <mxPoint x="400" y="860" as="sourcePoint" />
            <mxPoint x="480" y="680" as="targetPoint" />
            <Array as="points">
              <mxPoint x="440" y="910" />
              <mxPoint x="440" y="610" />
            </Array>
          </mxGeometry>
        </mxCell>
        <mxCell id="2i5c325rwn35jVtTAGPS-7" value="" style="endArrow=none;html=1;rounded=0;entryX=0;entryY=0.5;entryDx=0;entryDy=0;exitX=1;exitY=0.5;exitDx=0;exitDy=0;" edge="1" parent="1" source="1BaBInEf8kQ6XVin8U2z-1" target="1BaBInEf8kQ6XVin8U2z-2">
          <mxGeometry width="50" height="50" relative="1" as="geometry">
            <mxPoint x="400" y="780" as="sourcePoint" />
            <mxPoint x="480" y="480" as="targetPoint" />
            <Array as="points">
              <mxPoint x="440" y="910" />
              <mxPoint x="440" y="210" />
            </Array>
          </mxGeometry>
        </mxCell>
        <mxCell id="2i5c325rwn35jVtTAGPS-8" value="" style="endArrow=none;html=1;rounded=0;entryX=0;entryY=0.5;entryDx=0;entryDy=0;exitX=1;exitY=0.5;exitDx=0;exitDy=0;" edge="1" parent="1" source="2i5c325rwn35jVtTAGPS-1" target="1BaBInEf8kQ6XVin8U2z-1">
          <mxGeometry width="50" height="50" relative="1" as="geometry">
            <mxPoint x="450" y="1000" as="sourcePoint" />
            <mxPoint x="480" y="1000" as="targetPoint" />
            <Array as="points" />
          </mxGeometry>
        </mxCell>
        <mxCell id="2i5c325rwn35jVtTAGPS-9" value="Creación de objetos" style="rounded=0;whiteSpace=wrap;html=1;" vertex="1" parent="1">
          <mxGeometry x="30" y="800" width="90" height="40" as="geometry" />
        </mxCell>
        <mxCell id="2i5c325rwn35jVtTAGPS-10" value="El operador typeof" style="rounded=0;whiteSpace=wrap;html=1;" vertex="1" parent="1">
          <mxGeometry x="170" y="800" width="90" height="40" as="geometry" />
        </mxCell>
        <mxCell id="2i5c325rwn35jVtTAGPS-11" value="Instance of" style="rounded=0;whiteSpace=wrap;html=1;" vertex="1" parent="1">
          <mxGeometry x="320" y="800" width="90" height="40" as="geometry" />
        </mxCell>
        <mxCell id="2i5c325rwn35jVtTAGPS-12" value="Objetos Built-in princiales" style="rounded=0;whiteSpace=wrap;html=1;" vertex="1" parent="1">
          <mxGeometry x="310" y="2320" width="90" height="40" as="geometry" />
        </mxCell>
        <mxCell id="2i5c325rwn35jVtTAGPS-13" value="Object" style="rounded=0;whiteSpace=wrap;html=1;" vertex="1" parent="1">
          <mxGeometry x="440" y="1940" width="80" height="40" as="geometry" />
        </mxCell>
        <mxCell id="2i5c325rwn35jVtTAGPS-14" value="Métodos y propiedades esenciales de Object" style="rounded=0;whiteSpace=wrap;html=1;" vertex="1" parent="1">
          <mxGeometry x="560" y="1940" width="140" height="40" as="geometry" />
        </mxCell>
        <mxCell id="2i5c325rwn35jVtTAGPS-15" value="Array" style="rounded=0;whiteSpace=wrap;html=1;" vertex="1" parent="1">
          <mxGeometry x="440" y="2020" width="80" height="40" as="geometry" />
        </mxCell>
        <mxCell id="2i5c325rwn35jVtTAGPS-16" value="Métodos comunes de Array" style="rounded=0;whiteSpace=wrap;html=1;" vertex="1" parent="1">
          <mxGeometry x="560" y="2020" width="140" height="40" as="geometry" />
        </mxCell>
        <mxCell id="2i5c325rwn35jVtTAGPS-17" value="String" style="rounded=0;whiteSpace=wrap;html=1;" vertex="1" parent="1">
          <mxGeometry x="440" y="2100" width="80" height="40" as="geometry" />
        </mxCell>
        <mxCell id="2i5c325rwn35jVtTAGPS-18" value="Métodos esenciales de String" style="rounded=0;whiteSpace=wrap;html=1;" vertex="1" parent="1">
          <mxGeometry x="560" y="2100" width="140" height="40" as="geometry" />
        </mxCell>
        <mxCell id="2i5c325rwn35jVtTAGPS-19" value="Number" style="rounded=0;whiteSpace=wrap;html=1;" vertex="1" parent="1">
          <mxGeometry x="440" y="2180" width="80" height="40" as="geometry" />
        </mxCell>
        <mxCell id="2i5c325rwn35jVtTAGPS-20" value="Métodos esenciales de Number" style="rounded=0;whiteSpace=wrap;html=1;" vertex="1" parent="1">
          <mxGeometry x="560" y="2180" width="140" height="40" as="geometry" />
        </mxCell>
        <mxCell id="2i5c325rwn35jVtTAGPS-21" value="Boolean" style="rounded=0;whiteSpace=wrap;html=1;" vertex="1" parent="1">
          <mxGeometry x="440" y="1860" width="80" height="40" as="geometry" />
        </mxCell>
        <mxCell id="2i5c325rwn35jVtTAGPS-22" value="Function" style="rounded=0;whiteSpace=wrap;html=1;" vertex="1" parent="1">
          <mxGeometry x="440" y="2260" width="80" height="40" as="geometry" />
        </mxCell>
        <mxCell id="2i5c325rwn35jVtTAGPS-23" value="Métodos relevantes de Function" style="rounded=0;whiteSpace=wrap;html=1;" vertex="1" parent="1">
          <mxGeometry x="560" y="2260" width="140" height="40" as="geometry" />
        </mxCell>
        <mxCell id="2i5c325rwn35jVtTAGPS-24" value="Date" style="rounded=0;whiteSpace=wrap;html=1;" vertex="1" parent="1">
          <mxGeometry x="440" y="2380" width="80" height="40" as="geometry" />
        </mxCell>
        <mxCell id="2i5c325rwn35jVtTAGPS-25" value="Métodos esenciales de Date" style="rounded=0;whiteSpace=wrap;html=1;" vertex="1" parent="1">
          <mxGeometry x="560" y="2420" width="140" height="40" as="geometry" />
        </mxCell>
        <mxCell id="2i5c325rwn35jVtTAGPS-26" value="Creación y manejo de fechas" style="rounded=0;whiteSpace=wrap;html=1;" vertex="1" parent="1">
          <mxGeometry x="560" y="2340" width="140" height="40" as="geometry" />
        </mxCell>
        <mxCell id="2i5c325rwn35jVtTAGPS-28" value="Math" style="rounded=0;whiteSpace=wrap;html=1;" vertex="1" parent="1">
          <mxGeometry x="440" y="2540" width="80" height="40" as="geometry" />
        </mxCell>
        <mxCell id="2i5c325rwn35jVtTAGPS-29" value="Métodos esenciales de Math" style="rounded=0;whiteSpace=wrap;html=1;" vertex="1" parent="1">
          <mxGeometry x="560" y="2500" width="140" height="40" as="geometry" />
        </mxCell>
        <mxCell id="2i5c325rwn35jVtTAGPS-30" value="Constantes de Math" style="rounded=0;whiteSpace=wrap;html=1;" vertex="1" parent="1">
          <mxGeometry x="560" y="2580" width="140" height="40" as="geometry" />
        </mxCell>
        <mxCell id="2i5c325rwn35jVtTAGPS-31" value="RegExp" style="rounded=0;whiteSpace=wrap;html=1;" vertex="1" parent="1">
          <mxGeometry x="440" y="2700" width="80" height="40" as="geometry" />
        </mxCell>
        <mxCell id="2i5c325rwn35jVtTAGPS-32" value="Creación y uso de expresiones regulares" style="rounded=0;whiteSpace=wrap;html=1;" vertex="1" parent="1">
          <mxGeometry x="560" y="2660" width="140" height="40" as="geometry" />
        </mxCell>
        <mxCell id="2i5c325rwn35jVtTAGPS-33" value="Métodos esenciales de RegExp" style="rounded=0;whiteSpace=wrap;html=1;" vertex="1" parent="1">
          <mxGeometry x="560" y="2740" width="140" height="40" as="geometry" />
        </mxCell>
        <mxCell id="2i5c325rwn35jVtTAGPS-35" value="Manejo de errores y excepciones" style="rounded=0;whiteSpace=wrap;html=1;" vertex="1" parent="1">
          <mxGeometry x="560" y="2820" width="140" height="40" as="geometry" />
        </mxCell>
        <mxCell id="2i5c325rwn35jVtTAGPS-36" value="Tipos de errores" style="rounded=0;whiteSpace=wrap;html=1;" vertex="1" parent="1">
          <mxGeometry x="560" y="2900" width="140" height="40" as="geometry" />
        </mxCell>
        <mxCell id="2i5c325rwn35jVtTAGPS-37" value="Error" style="rounded=0;whiteSpace=wrap;html=1;" vertex="1" parent="1">
          <mxGeometry x="440" y="2860" width="80" height="40" as="geometry" />
        </mxCell>
        <mxCell id="2i5c325rwn35jVtTAGPS-38" value="" style="endArrow=none;html=1;rounded=0;exitX=1;exitY=0.5;exitDx=0;exitDy=0;entryX=0;entryY=0.5;entryDx=0;entryDy=0;" edge="1" parent="1" source="2i5c325rwn35jVtTAGPS-12" target="2i5c325rwn35jVtTAGPS-37">
          <mxGeometry width="50" height="50" relative="1" as="geometry">
            <mxPoint x="400" y="2370" as="sourcePoint" />
            <mxPoint x="500" y="2340" as="targetPoint" />
            <Array as="points">
              <mxPoint x="420" y="2340" />
              <mxPoint x="420" y="2880" />
            </Array>
          </mxGeometry>
        </mxCell>
        <mxCell id="2i5c325rwn35jVtTAGPS-39" value="" style="endArrow=none;html=1;rounded=0;entryX=0;entryY=0.5;entryDx=0;entryDy=0;" edge="1" parent="1" target="2i5c325rwn35jVtTAGPS-21">
          <mxGeometry width="50" height="50" relative="1" as="geometry">
            <mxPoint x="420" y="2340" as="sourcePoint" />
            <mxPoint x="450" y="2890" as="targetPoint" />
            <Array as="points">
              <mxPoint x="420" y="1880" />
            </Array>
          </mxGeometry>
        </mxCell>
        <mxCell id="2i5c325rwn35jVtTAGPS-40" value="" style="endArrow=none;html=1;rounded=0;entryX=0;entryY=0.5;entryDx=0;entryDy=0;exitX=1;exitY=0.5;exitDx=0;exitDy=0;" edge="1" parent="1" source="2i5c325rwn35jVtTAGPS-13" target="2i5c325rwn35jVtTAGPS-14">
          <mxGeometry width="50" height="50" relative="1" as="geometry">
            <mxPoint x="390" y="2250" as="sourcePoint" />
            <mxPoint x="440" y="2200" as="targetPoint" />
          </mxGeometry>
        </mxCell>
        <mxCell id="2i5c325rwn35jVtTAGPS-41" value="" style="endArrow=none;html=1;rounded=0;entryX=0;entryY=0.5;entryDx=0;entryDy=0;" edge="1" parent="1">
          <mxGeometry width="50" height="50" relative="1" as="geometry">
            <mxPoint x="420" y="1960" as="sourcePoint" />
            <mxPoint x="440" y="1959.86" as="targetPoint" />
          </mxGeometry>
        </mxCell>
        <mxCell id="2i5c325rwn35jVtTAGPS-42" value="" style="endArrow=none;html=1;rounded=0;entryX=0;entryY=0.5;entryDx=0;entryDy=0;exitX=1;exitY=0.5;exitDx=0;exitDy=0;" edge="1" parent="1">
          <mxGeometry width="50" height="50" relative="1" as="geometry">
            <mxPoint x="520" y="2039.86" as="sourcePoint" />
            <mxPoint x="560" y="2039.86" as="targetPoint" />
          </mxGeometry>
        </mxCell>
        <mxCell id="2i5c325rwn35jVtTAGPS-43" value="" style="endArrow=none;html=1;rounded=0;exitX=1;exitY=0.5;exitDx=0;exitDy=0;" edge="1" parent="1">
          <mxGeometry width="50" height="50" relative="1" as="geometry">
            <mxPoint x="420" y="2039.86" as="sourcePoint" />
            <mxPoint x="440" y="2040" as="targetPoint" />
          </mxGeometry>
        </mxCell>
        <mxCell id="2i5c325rwn35jVtTAGPS-44" value="" style="endArrow=none;html=1;rounded=0;entryX=0;entryY=0.5;entryDx=0;entryDy=0;exitX=1;exitY=0.5;exitDx=0;exitDy=0;" edge="1" parent="1">
          <mxGeometry width="50" height="50" relative="1" as="geometry">
            <mxPoint x="520" y="2119.8599999999997" as="sourcePoint" />
            <mxPoint x="560" y="2119.8599999999997" as="targetPoint" />
          </mxGeometry>
        </mxCell>
        <mxCell id="2i5c325rwn35jVtTAGPS-45" value="" style="endArrow=none;html=1;rounded=0;exitX=1;exitY=0.5;exitDx=0;exitDy=0;" edge="1" parent="1">
          <mxGeometry width="50" height="50" relative="1" as="geometry">
            <mxPoint x="420" y="2119.72" as="sourcePoint" />
            <mxPoint x="440" y="2120" as="targetPoint" />
          </mxGeometry>
        </mxCell>
        <mxCell id="2i5c325rwn35jVtTAGPS-46" value="" style="endArrow=none;html=1;rounded=0;entryX=0;entryY=0.5;entryDx=0;entryDy=0;exitX=1;exitY=0.5;exitDx=0;exitDy=0;" edge="1" parent="1">
          <mxGeometry width="50" height="50" relative="1" as="geometry">
            <mxPoint x="520" y="2199.8599999999997" as="sourcePoint" />
            <mxPoint x="560" y="2199.8599999999997" as="targetPoint" />
          </mxGeometry>
        </mxCell>
        <mxCell id="2i5c325rwn35jVtTAGPS-47" value="" style="endArrow=none;html=1;rounded=0;entryX=0;entryY=0.5;entryDx=0;entryDy=0;" edge="1" parent="1">
          <mxGeometry width="50" height="50" relative="1" as="geometry">
            <mxPoint x="420" y="2200" as="sourcePoint" />
            <mxPoint x="440" y="2199.8599999999997" as="targetPoint" />
          </mxGeometry>
        </mxCell>
        <mxCell id="2i5c325rwn35jVtTAGPS-48" value="" style="endArrow=none;html=1;rounded=0;entryX=0;entryY=0.5;entryDx=0;entryDy=0;exitX=1;exitY=0.5;exitDx=0;exitDy=0;" edge="1" parent="1">
          <mxGeometry width="50" height="50" relative="1" as="geometry">
            <mxPoint x="520" y="2279.8599999999997" as="sourcePoint" />
            <mxPoint x="560" y="2279.8599999999997" as="targetPoint" />
          </mxGeometry>
        </mxCell>
        <mxCell id="2i5c325rwn35jVtTAGPS-49" value="" style="endArrow=none;html=1;rounded=0;exitX=1;exitY=0.5;exitDx=0;exitDy=0;" edge="1" parent="1">
          <mxGeometry width="50" height="50" relative="1" as="geometry">
            <mxPoint x="420" y="2280" as="sourcePoint" />
            <mxPoint x="440" y="2280" as="targetPoint" />
          </mxGeometry>
        </mxCell>
        <mxCell id="2i5c325rwn35jVtTAGPS-50" value="" style="endArrow=none;html=1;rounded=0;exitX=1;exitY=0.5;exitDx=0;exitDy=0;" edge="1" parent="1">
          <mxGeometry width="50" height="50" relative="1" as="geometry">
            <mxPoint x="420" y="2399.8599999999997" as="sourcePoint" />
            <mxPoint x="440" y="2399.8599999999997" as="targetPoint" />
          </mxGeometry>
        </mxCell>
        <mxCell id="2i5c325rwn35jVtTAGPS-51" value="" style="endArrow=none;html=1;rounded=0;exitX=1;exitY=0.5;exitDx=0;exitDy=0;" edge="1" parent="1">
          <mxGeometry width="50" height="50" relative="1" as="geometry">
            <mxPoint x="420" y="2559.8599999999997" as="sourcePoint" />
            <mxPoint x="440" y="2559.8599999999997" as="targetPoint" />
          </mxGeometry>
        </mxCell>
        <mxCell id="2i5c325rwn35jVtTAGPS-52" value="" style="endArrow=none;html=1;rounded=0;exitX=1;exitY=0.5;exitDx=0;exitDy=0;" edge="1" parent="1">
          <mxGeometry width="50" height="50" relative="1" as="geometry">
            <mxPoint x="420" y="2719.8599999999997" as="sourcePoint" />
            <mxPoint x="440" y="2719.8599999999997" as="targetPoint" />
          </mxGeometry>
        </mxCell>
        <mxCell id="2i5c325rwn35jVtTAGPS-53" value="" style="endArrow=none;html=1;rounded=0;exitX=1;exitY=0.5;exitDx=0;exitDy=0;" edge="1" parent="1">
          <mxGeometry width="50" height="50" relative="1" as="geometry">
            <mxPoint x="520" y="2399.8599999999997" as="sourcePoint" />
            <mxPoint x="540" y="2399.8599999999997" as="targetPoint" />
          </mxGeometry>
        </mxCell>
        <mxCell id="2i5c325rwn35jVtTAGPS-54" value="" style="endArrow=none;html=1;rounded=0;exitX=1;exitY=0.5;exitDx=0;exitDy=0;" edge="1" parent="1">
          <mxGeometry width="50" height="50" relative="1" as="geometry">
            <mxPoint x="540" y="2359.8599999999997" as="sourcePoint" />
            <mxPoint x="560" y="2359.8599999999997" as="targetPoint" />
          </mxGeometry>
        </mxCell>
        <mxCell id="2i5c325rwn35jVtTAGPS-55" value="" style="endArrow=none;html=1;rounded=0;" edge="1" parent="1">
          <mxGeometry width="50" height="50" relative="1" as="geometry">
            <mxPoint x="540" y="2400" as="sourcePoint" />
            <mxPoint x="540" y="2360" as="targetPoint" />
          </mxGeometry>
        </mxCell>
        <mxCell id="2i5c325rwn35jVtTAGPS-56" value="" style="endArrow=none;html=1;rounded=0;" edge="1" parent="1">
          <mxGeometry width="50" height="50" relative="1" as="geometry">
            <mxPoint x="540" y="2440" as="sourcePoint" />
            <mxPoint x="540" y="2400" as="targetPoint" />
          </mxGeometry>
        </mxCell>
        <mxCell id="2i5c325rwn35jVtTAGPS-57" value="" style="endArrow=none;html=1;rounded=0;exitX=1;exitY=0.5;exitDx=0;exitDy=0;" edge="1" parent="1">
          <mxGeometry width="50" height="50" relative="1" as="geometry">
            <mxPoint x="540" y="2439.8599999999997" as="sourcePoint" />
            <mxPoint x="560" y="2439.8599999999997" as="targetPoint" />
          </mxGeometry>
        </mxCell>
        <mxCell id="2i5c325rwn35jVtTAGPS-58" value="" style="endArrow=none;html=1;rounded=0;exitX=1;exitY=0.5;exitDx=0;exitDy=0;" edge="1" parent="1">
          <mxGeometry width="50" height="50" relative="1" as="geometry">
            <mxPoint x="540" y="2520" as="sourcePoint" />
            <mxPoint x="560" y="2520" as="targetPoint" />
          </mxGeometry>
        </mxCell>
        <mxCell id="2i5c325rwn35jVtTAGPS-59" value="" style="endArrow=none;html=1;rounded=0;exitX=1;exitY=0.5;exitDx=0;exitDy=0;" edge="1" parent="1">
          <mxGeometry width="50" height="50" relative="1" as="geometry">
            <mxPoint x="540" y="2599.8599999999997" as="sourcePoint" />
            <mxPoint x="560" y="2599.8599999999997" as="targetPoint" />
          </mxGeometry>
        </mxCell>
        <mxCell id="2i5c325rwn35jVtTAGPS-60" value="" style="endArrow=none;html=1;rounded=0;exitX=1;exitY=0.5;exitDx=0;exitDy=0;" edge="1" parent="1">
          <mxGeometry width="50" height="50" relative="1" as="geometry">
            <mxPoint x="540" y="2679.8599999999997" as="sourcePoint" />
            <mxPoint x="560" y="2679.8599999999997" as="targetPoint" />
          </mxGeometry>
        </mxCell>
        <mxCell id="2i5c325rwn35jVtTAGPS-61" value="" style="endArrow=none;html=1;rounded=0;exitX=1;exitY=0.5;exitDx=0;exitDy=0;" edge="1" parent="1">
          <mxGeometry width="50" height="50" relative="1" as="geometry">
            <mxPoint x="540" y="2759.83" as="sourcePoint" />
            <mxPoint x="560" y="2759.83" as="targetPoint" />
          </mxGeometry>
        </mxCell>
        <mxCell id="2i5c325rwn35jVtTAGPS-63" value="" style="endArrow=none;html=1;rounded=0;exitX=1;exitY=0.5;exitDx=0;exitDy=0;" edge="1" parent="1">
          <mxGeometry width="50" height="50" relative="1" as="geometry">
            <mxPoint x="540" y="2919.71" as="sourcePoint" />
            <mxPoint x="560" y="2919.71" as="targetPoint" />
          </mxGeometry>
        </mxCell>
        <mxCell id="2i5c325rwn35jVtTAGPS-64" value="" style="endArrow=none;html=1;rounded=0;exitX=1;exitY=0.5;exitDx=0;exitDy=0;" edge="1" parent="1">
          <mxGeometry width="50" height="50" relative="1" as="geometry">
            <mxPoint x="540" y="2839.94" as="sourcePoint" />
            <mxPoint x="560" y="2839.94" as="targetPoint" />
          </mxGeometry>
        </mxCell>
        <mxCell id="2i5c325rwn35jVtTAGPS-65" value="" style="endArrow=none;html=1;rounded=0;" edge="1" parent="1">
          <mxGeometry width="50" height="50" relative="1" as="geometry">
            <mxPoint x="540" y="2600" as="sourcePoint" />
            <mxPoint x="540" y="2520" as="targetPoint" />
          </mxGeometry>
        </mxCell>
        <mxCell id="2i5c325rwn35jVtTAGPS-66" value="" style="endArrow=none;html=1;rounded=0;" edge="1" parent="1">
          <mxGeometry width="50" height="50" relative="1" as="geometry">
            <mxPoint x="540" y="2760" as="sourcePoint" />
            <mxPoint x="540" y="2680" as="targetPoint" />
          </mxGeometry>
        </mxCell>
        <mxCell id="2i5c325rwn35jVtTAGPS-67" value="" style="endArrow=none;html=1;rounded=0;" edge="1" parent="1">
          <mxGeometry width="50" height="50" relative="1" as="geometry">
            <mxPoint x="540" y="2920" as="sourcePoint" />
            <mxPoint x="540" y="2840" as="targetPoint" />
          </mxGeometry>
        </mxCell>
        <mxCell id="2i5c325rwn35jVtTAGPS-68" value="" style="endArrow=none;html=1;rounded=0;exitX=1;exitY=0.5;exitDx=0;exitDy=0;" edge="1" parent="1">
          <mxGeometry width="50" height="50" relative="1" as="geometry">
            <mxPoint x="520" y="2879.93" as="sourcePoint" />
            <mxPoint x="540" y="2879.93" as="targetPoint" />
          </mxGeometry>
        </mxCell>
        <mxCell id="2i5c325rwn35jVtTAGPS-69" value="" style="endArrow=none;html=1;rounded=0;exitX=1;exitY=0.5;exitDx=0;exitDy=0;" edge="1" parent="1">
          <mxGeometry width="50" height="50" relative="1" as="geometry">
            <mxPoint x="520" y="2719.8" as="sourcePoint" />
            <mxPoint x="540" y="2719.8" as="targetPoint" />
          </mxGeometry>
        </mxCell>
        <mxCell id="2i5c325rwn35jVtTAGPS-70" value="" style="endArrow=none;html=1;rounded=0;exitX=1;exitY=0.5;exitDx=0;exitDy=0;" edge="1" parent="1">
          <mxGeometry width="50" height="50" relative="1" as="geometry">
            <mxPoint x="520" y="2559.8" as="sourcePoint" />
            <mxPoint x="540" y="2559.8" as="targetPoint" />
          </mxGeometry>
        </mxCell>
        <mxCell id="2i5c325rwn35jVtTAGPS-71" value="" style="endArrow=none;html=1;rounded=0;entryX=0.5;entryY=1;entryDx=0;entryDy=0;exitX=0.5;exitY=0;exitDx=0;exitDy=0;" edge="1" parent="1" source="2i5c325rwn35jVtTAGPS-12" target="1BaBInEf8kQ6XVin8U2z-1">
          <mxGeometry width="50" height="50" relative="1" as="geometry">
            <mxPoint x="355" y="1070" as="sourcePoint" />
            <mxPoint x="360" y="1000" as="targetPoint" />
          </mxGeometry>
        </mxCell>
        <mxCell id="2i5c325rwn35jVtTAGPS-72" value="" style="endArrow=none;html=1;rounded=0;entryX=0.5;entryY=1;entryDx=0;entryDy=0;exitX=0.5;exitY=0;exitDx=0;exitDy=0;" edge="1" parent="1" source="2i5c325rwn35jVtTAGPS-1" target="2i5c325rwn35jVtTAGPS-10">
          <mxGeometry width="50" height="50" relative="1" as="geometry">
            <mxPoint x="240" y="860" as="sourcePoint" />
            <mxPoint x="290" y="810" as="targetPoint" />
          </mxGeometry>
        </mxCell>
        <mxCell id="2i5c325rwn35jVtTAGPS-75" value="" style="endArrow=none;html=1;rounded=0;entryX=0.444;entryY=1;entryDx=0;entryDy=0;entryPerimeter=0;" edge="1" parent="1" target="2i5c325rwn35jVtTAGPS-11">
          <mxGeometry width="50" height="50" relative="1" as="geometry">
            <mxPoint x="360" y="860" as="sourcePoint" />
            <mxPoint x="360" y="820" as="targetPoint" />
          </mxGeometry>
        </mxCell>
        <mxCell id="2i5c325rwn35jVtTAGPS-76" value="" style="endArrow=none;html=1;rounded=0;" edge="1" parent="1">
          <mxGeometry width="50" height="50" relative="1" as="geometry">
            <mxPoint x="220" y="860" as="sourcePoint" />
            <mxPoint x="360" y="860" as="targetPoint" />
          </mxGeometry>
        </mxCell>
        <mxCell id="2i5c325rwn35jVtTAGPS-77" value="" style="endArrow=none;html=1;rounded=0;" edge="1" parent="1">
          <mxGeometry width="50" height="50" relative="1" as="geometry">
            <mxPoint x="80" y="860" as="sourcePoint" />
            <mxPoint x="220" y="860" as="targetPoint" />
          </mxGeometry>
        </mxCell>
        <mxCell id="2i5c325rwn35jVtTAGPS-78" value="" style="endArrow=none;html=1;rounded=0;entryX=0.551;entryY=1.012;entryDx=0;entryDy=0;entryPerimeter=0;" edge="1" parent="1" target="2i5c325rwn35jVtTAGPS-9">
          <mxGeometry width="50" height="50" relative="1" as="geometry">
            <mxPoint x="80" y="860" as="sourcePoint" />
            <mxPoint x="140" y="810" as="targetPoint" />
          </mxGeometry>
        </mxCell>
        <mxCell id="2i5c325rwn35jVtTAGPS-79" value="Tipos de Datos" style="rounded=0;whiteSpace=wrap;html=1;" vertex="1" parent="1">
          <mxGeometry x="30" y="890" width="90" height="40" as="geometry" />
        </mxCell>
        <mxCell id="2i5c325rwn35jVtTAGPS-80" value="" style="endArrow=none;html=1;rounded=0;entryX=0;entryY=0.5;entryDx=0;entryDy=0;exitX=1;exitY=0.5;exitDx=0;exitDy=0;" edge="1" parent="1" source="2i5c325rwn35jVtTAGPS-79">
          <mxGeometry width="50" height="50" relative="1" as="geometry">
            <mxPoint x="120" y="909.62" as="sourcePoint" />
            <mxPoint x="170" y="909.62" as="targetPoint" />
            <Array as="points" />
          </mxGeometry>
        </mxCell>
        <mxCell id="2i5c325rwn35jVtTAGPS-81" value="String&amp;nbsp;" style="rounded=0;whiteSpace=wrap;html=1;" vertex="1" parent="1">
          <mxGeometry x="-250" y="800" width="90" height="40" as="geometry" />
        </mxCell>
        <mxCell id="2i5c325rwn35jVtTAGPS-82" value="undefined" style="rounded=0;whiteSpace=wrap;html=1;" vertex="1" parent="1">
          <mxGeometry x="-130" y="800" width="90" height="40" as="geometry" />
        </mxCell>
        <mxCell id="2i5c325rwn35jVtTAGPS-83" value="number" style="rounded=0;whiteSpace=wrap;html=1;" vertex="1" parent="1">
          <mxGeometry x="-250" y="860" width="90" height="40" as="geometry" />
        </mxCell>
        <mxCell id="2i5c325rwn35jVtTAGPS-84" value="bigint" style="rounded=0;whiteSpace=wrap;html=1;" vertex="1" parent="1">
          <mxGeometry x="-130" y="860" width="90" height="40" as="geometry" />
        </mxCell>
        <mxCell id="2i5c325rwn35jVtTAGPS-85" value="Symbol" style="rounded=0;whiteSpace=wrap;html=1;" vertex="1" parent="1">
          <mxGeometry x="-250" y="980" width="210" height="40" as="geometry" />
        </mxCell>
        <mxCell id="2i5c325rwn35jVtTAGPS-86" value="boolean" style="rounded=0;whiteSpace=wrap;html=1;" vertex="1" parent="1">
          <mxGeometry x="-250" y="920" width="90" height="40" as="geometry" />
        </mxCell>
        <mxCell id="2i5c325rwn35jVtTAGPS-87" value="null" style="rounded=0;whiteSpace=wrap;html=1;" vertex="1" parent="1">
          <mxGeometry x="-130" y="920" width="90" height="40" as="geometry" />
        </mxCell>
        <mxCell id="2i5c325rwn35jVtTAGPS-89" value="" style="endArrow=none;html=1;rounded=0;entryX=0;entryY=0.5;entryDx=0;entryDy=0;exitX=1;exitY=0.5;exitDx=0;exitDy=0;" edge="1" parent="1" source="2i5c325rwn35jVtTAGPS-88">
          <mxGeometry width="50" height="50" relative="1" as="geometry">
            <mxPoint x="-20" y="910" as="sourcePoint" />
            <mxPoint x="30" y="909.62" as="targetPoint" />
            <Array as="points" />
          </mxGeometry>
        </mxCell>
        <mxCell id="2i5c325rwn35jVtTAGPS-90" value="Todo sobre variables" style="rounded=0;whiteSpace=wrap;html=1;" vertex="1" parent="1">
          <mxGeometry x="130" y="585" width="190" height="40" as="geometry" />
        </mxCell>
        <mxCell id="2i5c325rwn35jVtTAGPS-91" value="var" style="rounded=0;whiteSpace=wrap;html=1;" vertex="1" parent="1">
          <mxGeometry x="-100" y="450" width="50" height="40" as="geometry" />
        </mxCell>
        <mxCell id="2i5c325rwn35jVtTAGPS-92" value="let" style="rounded=0;whiteSpace=wrap;html=1;" vertex="1" parent="1">
          <mxGeometry x="-40" y="450" width="50" height="40" as="geometry" />
        </mxCell>
        <mxCell id="2i5c325rwn35jVtTAGPS-93" value="const" style="rounded=0;whiteSpace=wrap;html=1;" vertex="1" parent="1">
          <mxGeometry x="20" y="450" width="50" height="40" as="geometry" />
        </mxCell>
        <mxCell id="2i5c325rwn35jVtTAGPS-94" value="Declaraciones de Variables" style="rounded=0;whiteSpace=wrap;html=1;" vertex="1" parent="1">
          <mxGeometry x="-100" y="500" width="170" height="40" as="geometry" />
        </mxCell>
        <mxCell id="2i5c325rwn35jVtTAGPS-95" value="Hoisting" style="rounded=0;whiteSpace=wrap;html=1;" vertex="1" parent="1">
          <mxGeometry x="-100" y="550" width="170" height="40" as="geometry" />
        </mxCell>
        <mxCell id="2i5c325rwn35jVtTAGPS-96" value="Reglas de nombrado de variables" style="rounded=0;whiteSpace=wrap;html=1;" vertex="1" parent="1">
          <mxGeometry x="-100" y="600" width="170" height="40" as="geometry" />
        </mxCell>
        <mxCell id="2i5c325rwn35jVtTAGPS-97" value="Scope de variables" style="rounded=0;whiteSpace=wrap;html=1;" vertex="1" parent="1">
          <mxGeometry x="-100" y="650" width="170" height="40" as="geometry" />
        </mxCell>
        <mxCell id="2i5c325rwn35jVtTAGPS-99" value="Block" style="rounded=0;whiteSpace=wrap;html=1;" vertex="1" parent="1">
          <mxGeometry x="-100" y="700" width="50" height="40" as="geometry" />
        </mxCell>
        <mxCell id="2i5c325rwn35jVtTAGPS-100" value="Function" style="rounded=0;whiteSpace=wrap;html=1;" vertex="1" parent="1">
          <mxGeometry x="-40" y="700" width="50" height="40" as="geometry" />
        </mxCell>
        <mxCell id="2i5c325rwn35jVtTAGPS-101" value="Global" style="rounded=0;whiteSpace=wrap;html=1;" vertex="1" parent="1">
          <mxGeometry x="20" y="700" width="50" height="40" as="geometry" />
        </mxCell>
        <mxCell id="2i5c325rwn35jVtTAGPS-102" value="" style="endArrow=none;html=1;rounded=0;entryX=0.5;entryY=1;entryDx=0;entryDy=0;exitX=0.148;exitY=0.012;exitDx=0;exitDy=0;exitPerimeter=0;" edge="1" parent="1" source="2i5c325rwn35jVtTAGPS-94" target="2i5c325rwn35jVtTAGPS-91">
          <mxGeometry width="50" height="50" relative="1" as="geometry">
            <mxPoint x="190" y="870" as="sourcePoint" />
            <mxPoint x="190" y="850" as="targetPoint" />
          </mxGeometry>
        </mxCell>
        <mxCell id="2i5c325rwn35jVtTAGPS-103" value="" style="endArrow=none;html=1;rounded=0;entryX=0.5;entryY=1;entryDx=0;entryDy=0;exitX=0.148;exitY=0.012;exitDx=0;exitDy=0;exitPerimeter=0;" edge="1" parent="1">
          <mxGeometry width="50" height="50" relative="1" as="geometry">
            <mxPoint x="-15.11" y="500" as="sourcePoint" />
            <mxPoint x="-15.11" y="490" as="targetPoint" />
          </mxGeometry>
        </mxCell>
        <mxCell id="2i5c325rwn35jVtTAGPS-104" value="" style="endArrow=none;html=1;rounded=0;entryX=0.5;entryY=1;entryDx=0;entryDy=0;exitX=0.148;exitY=0.012;exitDx=0;exitDy=0;exitPerimeter=0;" edge="1" parent="1">
          <mxGeometry width="50" height="50" relative="1" as="geometry">
            <mxPoint x="44.89" y="500" as="sourcePoint" />
            <mxPoint x="44.89" y="490" as="targetPoint" />
          </mxGeometry>
        </mxCell>
        <mxCell id="2i5c325rwn35jVtTAGPS-109" value="" style="endArrow=none;html=1;rounded=0;entryX=0.5;entryY=1;entryDx=0;entryDy=0;exitX=0.148;exitY=0.012;exitDx=0;exitDy=0;exitPerimeter=0;" edge="1" parent="1">
          <mxGeometry width="50" height="50" relative="1" as="geometry">
            <mxPoint x="-75.19" y="700" as="sourcePoint" />
            <mxPoint x="-75.19" y="690" as="targetPoint" />
          </mxGeometry>
        </mxCell>
        <mxCell id="2i5c325rwn35jVtTAGPS-117" value="" style="endArrow=none;html=1;rounded=0;entryX=0.5;entryY=1;entryDx=0;entryDy=0;exitX=0.148;exitY=0.012;exitDx=0;exitDy=0;exitPerimeter=0;" edge="1" parent="1">
          <mxGeometry width="50" height="50" relative="1" as="geometry">
            <mxPoint x="-15.079999999999998" y="700" as="sourcePoint" />
            <mxPoint x="-15.079999999999998" y="690" as="targetPoint" />
          </mxGeometry>
        </mxCell>
        <mxCell id="2i5c325rwn35jVtTAGPS-118" value="" style="endArrow=none;html=1;rounded=0;entryX=0.5;entryY=1;entryDx=0;entryDy=0;exitX=0.148;exitY=0.012;exitDx=0;exitDy=0;exitPerimeter=0;" edge="1" parent="1">
          <mxGeometry width="50" height="50" relative="1" as="geometry">
            <mxPoint x="44.92" y="700" as="sourcePoint" />
            <mxPoint x="44.92" y="690" as="targetPoint" />
          </mxGeometry>
        </mxCell>
        <mxCell id="2i5c325rwn35jVtTAGPS-120" value="" style="endArrow=none;html=1;rounded=0;exitX=1;exitY=0.532;exitDx=0;exitDy=0;exitPerimeter=0;" edge="1" parent="1" source="2i5c325rwn35jVtTAGPS-119">
          <mxGeometry width="50" height="50" relative="1" as="geometry">
            <mxPoint x="90" y="604.96" as="sourcePoint" />
            <mxPoint x="130" y="604.96" as="targetPoint" />
          </mxGeometry>
        </mxCell>
      </root>
    </mxGraphModel>
  </diagram>
</mxfile>
